<svg width="24" height="24" viewBox="0 0 24 24" fill="none" xmlns="http://www.w3.org/2000/svg">
<path fill-rule="evenodd" clip-rule="evenodd" d="M12 3.75C11.6685 3.75 11.3505 3.8817 11.1161 4.11612C10.8817 4.35054 10.75 4.66848 10.75 5C10.75 5.29002 10.5828 5.55405 10.3206 5.67802C9.29525 6.16287 8.42115 6.9176 7.792 7.86133C7.16601 8.80031 6.80599 9.89117 6.75001 11.0181V14C6.75001 14.0301 6.74819 14.0602 6.74457 14.0901C6.65521 14.8284 6.39374 15.5354 5.98123 16.1542C5.95974 16.1864 5.93787 16.2183 5.91563 16.25H18.0844C18.0621 16.2183 18.0403 16.1864 18.0188 16.1542C17.6063 15.5354 17.3448 14.8284 17.2554 14.0901C17.2518 14.0602 17.25 14.0301 17.25 14V11.0181C17.194 9.89118 16.834 8.80031 16.208 7.86133C15.5789 6.9176 14.7048 6.16287 13.6794 5.67802C13.4172 5.55405 13.25 5.29002 13.25 5C13.25 4.66848 13.1183 4.35054 12.8839 4.11612C12.6495 3.8817 12.3315 3.75 12 3.75ZM10.0555 3.05546C10.5712 2.53973 11.2707 2.25 12 2.25C12.7294 2.25 13.4288 2.53973 13.9446 3.05546C14.3453 3.45621 14.6096 3.96791 14.7075 4.51836C15.8122 5.11853 16.7563 5.97962 17.4561 7.02927C18.2362 8.1995 18.6832 9.55995 18.7492 10.9648C18.7497 10.9765 18.75 10.9883 18.75 11V13.9524C18.8159 14.4422 18.9925 14.9106 19.2669 15.3221C19.5491 15.7455 19.9268 16.0966 20.3696 16.3474C20.666 16.5152 20.812 16.8617 20.7253 17.1911C20.6385 17.5205 20.3406 17.75 20 17.75H4.00001C3.65939 17.75 3.36154 17.5205 3.27476 17.1911C3.18797 16.8617 3.33405 16.5152 3.63044 16.3474C4.07321 16.0966 4.45091 15.7455 4.73316 15.3221C5.00747 14.9106 5.18416 14.4422 5.25001 13.9524V11C5.25001 10.9883 5.25028 10.9765 5.25083 10.9648C5.31677 9.55995 5.76377 8.1995 6.54392 7.02927C7.24369 5.97962 8.18783 5.11853 9.2925 4.51836C9.39043 3.96791 9.65472 3.45621 10.0555 3.05546Z" fill="#3D3D3D"/>
<path fill-rule="evenodd" clip-rule="evenodd" d="M9 16.25C9.41421 16.25 9.75 16.5858 9.75 17V18C9.75 18.5967 9.98705 19.169 10.409 19.591C10.831 20.0129 11.4033 20.25 12 20.25C12.5967 20.25 13.169 20.0129 13.591 19.591C14.0129 19.169 14.25 18.5967 14.25 18V17C14.25 16.5858 14.5858 16.25 15 16.25C15.4142 16.25 15.75 16.5858 15.75 17V18C15.75 18.9946 15.3549 19.9484 14.6517 20.6517C13.9484 21.3549 12.9946 21.75 12 21.75C11.0054 21.75 10.0516 21.3549 9.34835 20.6517C8.64509 19.9484 8.25 18.9946 8.25 18V17C8.25 16.5858 8.58579 16.25 9 16.25Z" fill="#3D3D3D"/>
<circle cx="17" cy="6" r="4" fill="#EE3E17"/>
</svg>
